
	<svg xmlns="http://www.w3.org/2000/svg" xmlns:xlink="http://www.w3.org/1999/xlink" version="1.1" width="256" height="256" viewBox="-2 -2 104 104">


		<defs>
			<g id="background" filter="url(#shadow)">
<path fill="url(#background-gradient)" stroke="rgba(255,255,255,0.5" d=" M 100 18.4 Q 100 10.8 94.6 5.4 89.05 0 81.6 0 L 18.4 0 Q 10.8 0 5.4 5.4 0 10.8 0 18.4 L 0 81.6 Q 0 89.05 5.4 94.6 10.8 100 18.4 100 L 81.6 100 Q 89.05 100 94.6 94.6 100 89.05 100 81.6 L 100 18.4 Z" />
</g><g id="middle-1">
<path fill="#000000" fill-opacity="0.4" stroke="none" d=" M 100 75.4 Q 99.8 82.4 94.6 87.75 89.2 93.15 81.6 93.15 L 18.4 93.15 Q 10.8 93.15 5.4 87.75 0.2 82.5 0 75.4 L 0 81.65 Q 0 89.2 5.4 94.6 10.8 100 18.4 100 L 81.6 100 Q 89.2 100 94.6 94.6 100 89.1 100 81.65 L 100 75.4 Z"/>
</g><mask id="mask">
<path fill="#FFFFFF" stroke="none" d=" M 100 18.4 Q 100 10.8 94.6 5.4 89.05 0 81.6 0 L 18.4 0 Q 10.8 0 5.4 5.4 0 10.8 0 18.4 L 0 75.4 Q 0.2 82.5 5.4 87.75 10.8 93.15 18.4 93.15 L 81.6 93.15 Q 89.2 93.15 94.6 87.75 99.8 82.4 100 75.4 L 100 18.4 Z"/>
</mask>
			
	<linearGradient id="background-gradient" x1="0" y1="0" y2="1" x2="0" >
		<stop stop-color="#008b8b" offset="0%"/>
		<stop stop-color="#008b8b" offset="100%"/>
	</linearGradient>
	<filter id="shadow" filterUnits="userSpaceOnUse">
	<feDropShadow dx="0" dy="0" stdDeviation="2"
          flood-color="rgba(255,255,255,0.3"/>
		</filter>
			
			
			<g transform="scale(3.3333333333333335) translate(4.76837158203125e-7 0)" id="picture"><path d="M18.3 30h-5c-1.2 0-2.3-.4-3.2-1.2l-2.2-2.1c-2.2-2.1-3.4-4.9-3.4-7.9v-5.7c0-1 .8-1.8 1.8-1.8.8 0 1.6.3 2.2.8V4.9c0-1.3 1.1-2.4 2.5-2.4.6 0 1.1.2 1.5.5v-.6C12.5 1.1 13.6 0 15 0s2.5 1.1 2.5 2.4V3c.4-.3.9-.5 1.5-.5 1.4 0 2.5 1.1 2.5 2.4v.6c.4-.3.9-.5 1.5-.5 1.4 0 2.5 1.1 2.5 2.4v15.8c0 3.7-3.2 6.8-7.2 6.8zm-12-17.7c-.5 0-.8.3-.8.8v5.7c0 2.7 1.1 5.2 3.1 7.1l2.2 2.1c.7.6 1.6 1 2.5 1h5c3.4 0 6.2-2.6 6.2-5.8V7.4c0-.7-.7-1.4-1.5-1.4s-1.5.6-1.5 1.4v6.1c0 .3-.2.5-.5.5s-.5-.2-.5-.5V4.9c0-.8-.7-1.4-1.5-1.4s-1.5.6-1.5 1.4v8.6c0 .3-.2.5-.5.5s-.5-.2-.5-.5V2.4c0-.8-.7-1.4-1.5-1.4s-1.5.6-1.5 1.4v11.1c0 .3-.2.5-.5.5s-.5-.2-.5-.5V4.9c0-.8-.7-1.4-1.5-1.4s-1.5.6-1.5 1.4v13.2c0 .3-.2.5-.5.5s-.5-.2-.5-.5v-3.8c0-1-1-2-2.2-2z"/></g>
			
	<linearGradient id="picture-gradient" x1="0" y1="0" y2="1" x2="0" >
		<stop stop-color="#ffffff" offset="0%"/>
		<stop stop-color="#fff" offset="100%"/>
	</linearGradient>

		</defs>

		

			<use xlink:href="#background" fill="url(#background-gradient)"  />
		
		<use xlink:href="#middle-1" />
		
			<g mask="url(#mask)">
				<g transform="
				        translate(
                                50 45
)
                            translate(-5 0) rotate(150) scale(0.6750000000000002) scale(-1 1) scale(1 -1)
                            translate(
                                -50 -45
)">
						<use xlink:href="#picture" fill="url(#picture-gradient)" />
				</g>
			</g>

		



	</svg>
