
	<svg xmlns="http://www.w3.org/2000/svg" xmlns:xlink="http://www.w3.org/1999/xlink" version="1.1" width="256" height="256" viewBox="-2 -2 104 104">


		<defs>
			<g id="background" filter="url(#shadow)">
<path fill="url(#background-gradient)" stroke="rgba(255,255,255,0.5" d=" M 100 18.4 Q 100 10.8 94.6 5.4 89.05 0 81.6 0 L 18.4 0 Q 10.8 0 5.4 5.4 0 10.8 0 18.4 L 0 81.6 Q 0 89.05 5.4 94.6 10.8 100 18.4 100 L 81.6 100 Q 89.05 100 94.6 94.6 100 89.05 100 81.6 L 100 18.4 Z"/>
</g><g id="middle-1">
<path fill="#000000" fill-opacity="0.4" stroke="none" d=" M 100 75.4 Q 99.8 82.4 94.6 87.75 89.2 93.15 81.6 93.15 L 18.4 93.15 Q 10.8 93.15 5.4 87.75 0.2 82.5 0 75.4 L 0 81.65 Q 0 89.2 5.4 94.6 10.8 100 18.4 100 L 81.6 100 Q 89.2 100 94.6 94.6 100 89.1 100 81.65 L 100 75.4 Z"/>
</g><mask id="mask">
<path fill="#FFFFFF" stroke="none" d=" M 100 18.4 Q 100 10.8 94.6 5.4 89.05 0 81.6 0 L 18.4 0 Q 10.8 0 5.4 5.4 0 10.8 0 18.4 L 0 75.4 Q 0.2 82.5 5.4 87.75 10.8 93.15 18.4 93.15 L 81.6 93.15 Q 89.2 93.15 94.6 87.75 99.8 82.4 100 75.4 L 100 18.4 Z"/>
</mask>
			
	<linearGradient id="background-gradient" x1="0" y1="0" y2="1" x2="0" >
		<stop stop-color="#008b8b" offset="0%"/>
		<stop stop-color="#008b8b" offset="100%"/>
	</linearGradient>
	<filter id="shadow" filterUnits="userSpaceOnUse">
	<feDropShadow dx="0" dy="0" stdDeviation="2"
          flood-color="rgba(255,255,255,0.3"/>
		</filter>
			
			
			<g transform="scale(4.761904761904762) translate(-4.499999523162842 -4.5)" id="picture"><path d="M8.5 14.5c-.3 0-.5-.2-.5-.5V8c0-1.4 1.1-2.5 2.5-2.5S13 6.6 13 8v2c0 .3-.2.5-.5.5s-.5-.2-.5-.5V8c0-.8-.7-1.5-1.5-1.5S9 7.2 9 8v6c0 .3-.2.5-.5.5z M16.5 10.5c-.3 0-.5-.2-.5-.5V7c0-.8-.7-1.5-1.5-1.5S13 6.2 13 7v3c0 .3-.2.5-.5.5s-.5-.2-.5-.5V7c0-1.4 1.1-2.5 2.5-2.5S17 5.6 17 7v3c0 .3-.2.5-.5.5z M20.5 10.5c-.3 0-.5-.2-.5-.5V8c0-.8-.7-1.5-1.5-1.5S17 7.2 17 8v2c0 .3-.2.5-.5.5s-.5-.2-.5-.5V8c0-1.4 1.1-2.5 2.5-2.5S21 6.6 21 8v2c0 .3-.2.5-.5.5z M16.4 25.5c-2.8 0-5.3-1-7.3-2.8l-2.7-2.5c-.9-.8-1.4-1.9-1.4-3v-1.9c0-1.1.5-2.2 1.4-3l1.5-1.4c.2-.2.5-.2.7 0 .2.2.2.5 0 .7L7 13c-.7.6-1 1.4-1 2.3v1.9c0 .9.4 1.7 1 2.3L9.7 22c1.7 1.6 4.1 2.5 6.6 2.5 4.2 0 7.6-3.1 7.6-7V10c0-.8-.7-1.5-1.5-1.5S21 9.2 21 10v1c0 .3-.2.5-.5.5s-.5-.2-.5-.5v-1c0-1.4 1.1-2.5 2.5-2.5S25 8.6 25 10v7.5c0 4.4-3.9 8-8.6 8z"/></g>
			
	<linearGradient id="picture-gradient" x1="0" y1="0" y2="1" x2="0" >
		<stop stop-color="#ffffff" offset="0%"/>
		<stop stop-color="#fff" offset="100%"/>
	</linearGradient>

		</defs>

		

			<use xlink:href="#background" fill="url(#background-gradient)" />

		<use xlink:href="#middle-1" />

			<g mask="url(#mask)">
				<g transform="
				        translate(
                                50 45
)
                            translate(0 5)  scale(0.5)  
                            translate(
                                -50 -45
)">
						<use xlink:href="#picture" fill="url(#picture-gradient)"  />
				</g>
			</g>

		



	</svg>
