
	<svg xmlns="http://www.w3.org/2000/svg" xmlns:xlink="http://www.w3.org/1999/xlink" version="1.1" width="256" height="256" viewBox="0 0 100 100">


		<defs>
			<g id="background">
<path fill="url(#background-gradient)" stroke="none" d=" M 100 18.4 Q 100 10.8 94.6 5.4 89.05 0 81.6 0 L 18.4 0 Q 10.8 0 5.4 5.4 0 10.8 0 18.4 L 0 81.6 Q 0 89.05 5.4 94.6 10.8 100 18.4 100 L 81.6 100 Q 89.05 100 94.6 94.6 100 89.05 100 81.6 L 100 18.4 Z"/>
</g><g id="middle-1">
<path fill="#000000" fill-opacity="0.4" stroke="none" d=" M 100 75.4 Q 99.8 82.4 94.6 87.75 89.2 93.15 81.6 93.15 L 18.4 93.15 Q 10.8 93.15 5.4 87.75 0.2 82.5 0 75.4 L 0 81.65 Q 0 89.2 5.4 94.6 10.8 100 18.4 100 L 81.6 100 Q 89.2 100 94.6 94.6 100 89.1 100 81.65 L 100 75.4 Z"/>
</g><mask id="mask">
<path fill="#FFFFFF" stroke="none" d=" M 100 18.4 Q 100 10.8 94.6 5.4 89.05 0 81.6 0 L 18.4 0 Q 10.8 0 5.4 5.4 0 10.8 0 18.4 L 0 75.4 Q 0.2 82.5 5.4 87.75 10.8 93.15 18.4 93.15 L 81.6 93.15 Q 89.2 93.15 94.6 87.75 99.8 82.4 100 75.4 L 100 18.4 Z"/>
</mask>
			
	<linearGradient id="background-gradient" x1="0" y1="0" y2="1" x2="0" >
		<stop stop-color="#008b8b" offset="0%"/>
		<stop stop-color="#008b8b" offset="100%"/>
	</linearGradient>

			
			
			<g transform="scale(3.3333333333333335) translate(0.09999895095825195 0)" id="picture"><path d="M17.1 30h-2.8c-1.3 0-2.5-.3-3.6-.9-2.4-1.2-4.2-3.5-4.6-5.9l-.5-2.9c0-.2-.1-.4-.1-.6 0-1.6 1.1-2.9 2.6-3.2l8.8-1.5c.2 0 .5.1.5.3.4 1 .4 2.1 0 3-.4.8-1.1 1.5-2 1.8l-2.7 1c-.1 0-.2.1-.3.3-.1.1 0 .3 0 .4l.8 1.5c.1.2 0 .5-.2.7-.2.1-.5 0-.7-.2l-.8-1.5c-.2-.4-.2-.8-.1-1.2s.5-.7.9-.8l2.7-1c.6-.2 1.1-.7 1.4-1.3.2-.6.3-1.2.1-1.9l-8.4 1.4c-1 .2-1.8 1.2-1.8 2.3v.4l.5 2.9c.4 2.1 2 4.1 4.1 5.2 1 .5 2.1.7 3.2.7h2.8c4.1 0 7.4-3.3 7.4-7.4V15c0-.3.2-.5.5-.5s.5.2.5.5v6.6c.2 4.6-3.6 8.4-8.2 8.4z M8.3 17.3c-.2 0-.4-.1-.5-.4L4.6 6.1c-.3-1 .1-2.1 1.1-2.7.6-.4 1.3-.5 1.9-.2.7.2 1.2.7 1.5 1.3l3.4 8v-10C12.6 1.1 13.8 0 15 0c1.4 0 2.5 1.1 2.5 2.5v7.4c0 .3-.2.5-.5.5s-.5-.2-.5-.5V2.5c0-.8-.7-1.5-1.5-1.5-.7 0-1.5.8-1.5 1.6v10.6c0 .4-.3.8-.7.8-.4.1-.8-.1-.9-.5L8.2 4.9c-.2-.4-.5-.7-.9-.8-.4-.1-.8-.1-1.1.1-.6.3-.8 1-.6 1.6l3.2 10.8c.1.3-.1.5-.3.6-.2 0-.2.1-.2.1z M19 19c-1.4 0-2.5-1.1-2.5-2.5v-6C16.5 9.1 17.6 8 19 8s2.5 1.1 2.5 2.5v6c0 1.4-1.1 2.5-2.5 2.5zm0-10c-.8 0-1.5.7-1.5 1.5v6c0 .8.7 1.5 1.5 1.5s1.5-.7 1.5-1.5v-6c0-.8-.7-1.5-1.5-1.5z M23 20c-1.4 0-2.5-1.1-2.5-2.5v-5c0-1.4 1.1-2.5 2.5-2.5s2.5 1.1 2.5 2.5v5c0 1.4-1.1 2.5-2.5 2.5zm0-9c-.8 0-1.5.7-1.5 1.5v5c0 .8.7 1.5 1.5 1.5s1.5-.7 1.5-1.5v-5c0-.8-.7-1.5-1.5-1.5z"/></g>
			
	<linearGradient id="picture-gradient" x1="0" y1="0" y2="1" x2="0" >
		<stop stop-color="#ffffff" offset="0%"/>
		<stop stop-color="#fff" offset="100%"/>
	</linearGradient>

		</defs>

		

			<use xlink:href="#background" fill="url(#background-gradient)" />

		<use xlink:href="#middle-1" />

			<g mask="url(#mask)">
				<g transform="
				        translate(
                                50 45
)
                            translate(-5 5) rotate(95) scale(0.6750000000000002)  scale(1 -1)
                            translate(
                                -50 -45
)">
						<use xlink:href="#picture" fill="url(#picture-gradient)"  />
				</g>
			</g>

		



	</svg>
